{
	"asset":{
		"generator":"Khronos glTF Blender I/O v3.6.27",
		"version":"2.0"
	},
	"scene":0,
	"scenes":[
		{
			"name":"Scene",
			"nodes":[
				0
			]
		}
	],
	"nodes":[
		{
			"mesh":0,
			"name":"Chest_Ingots"
		}
	],
	"materials":[
		{
			"doubleSided":true,
			"name":"Gold",
			"pbrMetallicRoughness":{
				"baseColorFactor":[
					0.60381680727005,
					0.47028830647468567,
					0.09837734699249268,
					1
				],
				"metallicFactor":0,
				"roughnessFactor":0.5
			}
		},
		{
			"doubleSided":true,
			"name":"DarkMetal",
			"pbrMetallicRoughness":{
				"baseColorFactor":[
					0.06305812299251556,
					0.05166768655180931,
					0.09462308138608932,
					1
				],
				"metallicFactor":0,
				"roughnessFactor":0.5
			}
		},
		{
			"doubleSided":true,
			"name":"Wood",
			"pbrMetallicRoughness":{
				"baseColorFactor":[
					0.20189261436462402,
					0.10397916287183762,
					0.07928955554962158,
					1
				],
				"metallicFactor":0,
				"roughnessFactor":0.5
			}
		},
		{
			"doubleSided":true,
			"name":"Metal",
			"pbrMetallicRoughness":{
				"baseColorFactor":[
					0.07698974758386612,
					0.06832612305879593,
					0.11493299156427383,
					1
				],
				"metallicFactor":0,
				"roughnessFactor":0.5
			}
		}
	],
	"meshes":[
		{
			"name":"Cube.020",
			"primitives":[
				{
					"attributes":{
						"POSITION":0,
						"NORMAL":1
					},
					"indices":2,
					"material":0
				},
				{
					"attributes":{
						"POSITION":3,
						"NORMAL":4
					},
					"indices":5,
					"material":1
				},
				{
					"attributes":{
						"POSITION":6,
						"NORMAL":7
					},
					"indices":8,
					"material":2
				},
				{
					"attributes":{
						"POSITION":9,
						"NORMAL":10
					},
					"indices":11,
					"material":3
				}
			]
		}
	],
	"accessors":[
		{
			"bufferView":0,
			"componentType":5126,
			"count":1296,
			"max":[
				0.3550128936767578,
				0.6342202425003052,
				0.2601149082183838
			],
			"min":[
				-0.3378695249557495,
				0.3106928765773773,
				-0.3241841197013855
			],
			"type":"VEC3"
		},
		{
			"bufferView":1,
			"componentType":5126,
			"count":1296,
			"type":"VEC3"
		},
		{
			"bufferView":2,
			"componentType":5123,
			"count":1944,
			"type":"SCALAR"
		},
		{
			"bufferView":3,
			"componentType":5126,
			"count":1042,
			"max":[
				0.47478288412094116,
				1.1398658752441406,
				0.36794042587280273
			],
			"min":[
				-0.47478288412094116,
				-0.006449147127568722,
				-0.5562511086463928
			],
			"type":"VEC3"
		},
		{
			"bufferView":4,
			"componentType":5126,
			"count":1042,
			"type":"VEC3"
		},
		{
			"bufferView":5,
			"componentType":5123,
			"count":1692,
			"type":"SCALAR"
		},
		{
			"bufferView":6,
			"componentType":5126,
			"count":1388,
			"max":[
				0.45316165685653687,
				1.1023001670837402,
				0.34580761194229126
			],
			"min":[
				-0.4531615972518921,
				0.055106356739997864,
				-0.5405783653259277
			],
			"type":"VEC3"
		},
		{
			"bufferView":7,
			"componentType":5126,
			"count":1388,
			"type":"VEC3"
		},
		{
			"bufferView":8,
			"componentType":5123,
			"count":2520,
			"type":"SCALAR"
		},
		{
			"bufferView":9,
			"componentType":5126,
			"count":546,
			"max":[
				0.06849987804889679,
				1.1409908533096313,
				0.414651095867157
			],
			"min":[
				-0.05370040237903595,
				0.29146936535835266,
				-0.5815957188606262
			],
			"type":"VEC3"
		},
		{
			"bufferView":10,
			"componentType":5126,
			"count":546,
			"type":"VEC3"
		},
		{
			"bufferView":11,
			"componentType":5123,
			"count":876,
			"type":"SCALAR"
		}
	],
	"bufferViews":[
		{
			"buffer":0,
			"byteLength":15552,
			"byteOffset":0,
			"target":34962
		},
		{
			"buffer":0,
			"byteLength":15552,
			"byteOffset":15552,
			"target":34962
		},
		{
			"buffer":0,
			"byteLength":3888,
			"byteOffset":31104,
			"target":34963
		},
		{
			"buffer":0,
			"byteLength":12504,
			"byteOffset":34992,
			"target":34962
		},
		{
			"buffer":0,
			"byteLength":12504,
			"byteOffset":47496,
			"target":34962
		},
		{
			"buffer":0,
			"byteLength":3384,
			"byteOffset":60000,
			"target":34963
		},
		{
			"buffer":0,
			"byteLength":16656,
			"byteOffset":63384,
			"target":34962
		},
		{
			"buffer":0,
			"byteLength":16656,
			"byteOffset":80040,
			"target":34962
		},
		{
			"buffer":0,
			"byteLength":5040,
			"byteOffset":96696,
			"target":34963
		},
		{
			"buffer":0,
			"byteLength":6552,
			"byteOffset":101736,
			"target":34962
		},
		{
			"buffer":0,
			"byteLength":6552,
			"byteOffset":108288,
			"target":34962
		},
		{
			"buffer":0,
			"byteLength":1752,
			"byteOffset":114840,
			"target":34963
		}
	],
	"buffers":[
		{
			"byteLength":116592,
			"uri":"data:application/octet-stream;base64,"
		}
	]
}
